<?xml version="1.0" encoding="UTF-8" standalone="no"?>

<svg
   version="1.1"
   id="svg416"
   width="747.44458"
   height="478.69296"
   viewBox="0 0 747.44458 478.69296"
   xmlns="http://www.w3.org/2000/svg"
   xmlns:svg="http://www.w3.org/2000/svg">
  <defs
     id="defs420" />
  <g
     id="g422"
     transform="translate(-28.191463,-20.313931)">
    <path
       style="fill:#31495d;fill-opacity:1"
       d="m 229.58695,498.82696 c -9.81165,0.415 -10.83805,0.2724 -15.65652,-2.1762 -2.83608,-1.4412 -9.13608,-6.0376 -14,-10.2142 -4.86391,-4.1767 -10.41848,-8.6399 -12.34348,-9.9183 -1.925,-1.2783 -5.525,-3.0736 -8,-3.9895 -3.35835,-1.2428 -8.58467,-1.7339 -20.60034,-1.9358 -12.15001,-0.2042 -16.8118,-0.6479 -19,-1.8083 -1.59481,-0.8456 -4.10837,-2.6835 -5.58568,-4.0842 -1.4773,-1.4006 -4.77849,-5.4789 -7.33597,-9.0629 -3.59063,-4.4449 -13.13648,-9.0819 -15.58793,-11.0828 -3.85177,-2.9658 -5.90924,-6.4364 -10.39008,-8.4178 -1.65,-0.7351 -5.3625,-2.3656 -8.25,-3.6233 -2.8875,-1.2578 -4.30646,-2.4229 -5.25,-3.1715 -1.72912,-1.3259 -2.20708,-1.9201 -4.57381,-3.6591 -1.60967,-1.6859 -3.555809,-5.33003 -5.723519,-7.28843 -2.871355,-4.18205 -2.897574,-4.41381 -6.354441,-10.15367 -1.165337,-2.60272 -1.309728,-3.88235 -2.66249,-6.6636 -1.493093,-2.56786 -2.73813,-4.135 -4.40949,-6.077 -2.6642,-3.2532 -3.54351,-7.0028 -5.13339,-9.9583 -1.48794,-2.7339 -1.83844,-2.1164 -2.72155,-3.858 -1.61478,-3.4552 -3.91894,-6.5493 -5.49977,-8.6373 -2.87086,-3.7047 -5.94372,-7.1919 -8.95588,-10.9716 -2.19111,-2.617 -4.65474,-6.364 -5.47473,-8.3265 -0.82,-1.9625 -1.49091,-3.9715 -1.49091,-4.4645 0,-0.4929 4.75916,-70.6139 4.75916,-70.6139 36.64053,-36.113 30.36467,-36.1777 33.95642,-89.7921 44.76751,-35.7408 131.64437,-62.8311 140.69506,-54.591 47.53392,-9.2928 104.62659,5.4673 152.20581,14.5254 86.16227,29.1792 113.98197,102.4095 196.44112,62.5738 17.73997,-9.4775 36.23794,-11.4145 39.6788,-32.6239 3.30964,-22.3397 1.62732,-43.8149 -15.62639,-55.3729 -6.38549,-4.2459 -14.6052,-10.7797 -18.26602,-14.5196 -4.66851,-4.7693 -7.8682,-9.256402 -10.7154,-15.026702 -2.70016,-5.4724 -4.44164,-10.7196 -5.20113,-15.6714 -0.6293,-4.103 -0.8407,-10.1624 -0.471,-13.5 0.36893,-3.3306 1.16561,-8.0806 1.7704,-10.5556 0.60479,-2.475 1.87663,-6.3343 2.82631,-8.5761 0.94967,-2.2419 3.87163,-7.1661 4.81112,-10.1105 2.23107,-6.9922 3.28055,-6.8881 7.895,2.7234 2.82337,5.8809 6.03254,14.9644 8.93986,18.0726 2.6134,2.7939 6.44636,5.9444 8.51767,7.0012 2.07131,1.0567 8.83239,3.5439 15.02462,5.5271 6.19222,1.9833 14.12358,4.9734 17.62523,6.6448 3.50165,1.6714 8.94137,5.4227 12.08828,8.3362 3.15557,2.9215 7.13331,7.9458 8.86924,11.2027 1.90835,3.5804 3.65956,8.936502 4.44794,13.604102 1.30035,7.6986 1.30035,7.6986 3.95123,5.6134 1.45798,-1.1468 5.71668,-3.5296 9.46378,-5.295 6.14128,-2.8935 7.91187,-3.2465 17.9611,-3.5816 6.13151,-0.2045 13.51331,0.1355 16.404,0.7554 2.89069,0.62 10.72398,3.3321 17.4073,6.027 6.68333,2.6948 15.05152,5.6569 18.59599,6.5823 4.18215,1.092 8.59966,1.5139 12.58366,1.2019 3.63796,-0.285 8.52698,-1.5735 12,-3.1627 3.22346,-1.475 7.92524,-4.0058 10.44839,-5.624 2.52313,-1.6183 4.88563,-2.9423 5.24998,-2.9423 0.36435,0 0.66245,1.0701 0.66245,2.3779 0,1.3078 -0.69517,4.1203 -1.54482,6.25 -0.84966,2.1297 -2.08342,4.9971 -2.74171,6.3721 -0.65828,1.375 -2.74131,5.2 -4.62896,8.5 -1.88764,3.3 -7.29682,9.825 -12.02039,14.5 -5.09408,5.0417 -11.02745,9.7935 -14.58334,11.6792 -3.29726,1.7486 -9.36681,4.1404 -13.4879,5.3152 -5.4476,1.5529 -12.26974,2.3757 -24.99288,3.0145 -12.81129,0.6432 -19.24152,1.4228 -24,2.9098 -3.575,1.1173 -8.81714,3.599 -11.64919,5.515 -2.83205,1.916 -6.70854,5.4148 -8.61441,7.775 -1.90587,2.3602 -4.62868,6.0913 -6.05068,8.2913 -1.422,2.2 -5.26153,11.65 -8.53229,21 -3.27076,9.35 -7.36498,20.825 -9.09828,25.5 -1.73329,4.675 -4.73809,11.875 -6.67734,16 -1.93925,4.125 -5.89969,12.225 -8.80097,18 -2.90129,5.775 -6.63645,12.75 -8.30037,15.5 -1.66391,2.75 -4.21771,7.025 -5.67511,9.5 -1.4574,2.475 -6.12642,9.5105 -10.37559,15.6344 -4.24917,6.1238 -9.07477,12.8738 -10.72356,15 -1.64878,2.1261 -7.25841,9.0406 -12.46584,15.3656 -5.20744,6.325 -15.33343,17.3698 -22.50222,24.544 -7.16878,7.1741 -17.53415,16.885 -23.03415,21.5797 -5.5,4.6947 -15.4,12.6069 -22,17.5827 -6.6,4.9758 -17.8654,12.8826 -25.03422,17.5706 -7.16882,4.688 -18.71247,11.702 -25.65257,15.5867 -6.94009,3.8847 -16.59969,8.9239 -21.46578,11.1982 -4.86608,2.2744 -14.02243,6.3747 -20.34743,9.1118 -6.325,2.7371 -14.65,6.0955 -18.5,7.4631 -3.85,1.3677 -8.8,3.084 -11,3.8142 -2.2,0.7302 -9.40736,2.9289 -16.01636,4.886 -6.609,1.9571 -19.434,5.1331 -28.5,7.0579 -9.066,1.9247 -22.10864,4.4165 -28.98364,5.5372 -6.875,1.1208 -20.375,2.7102 -30,3.5322 -14.04492,1.1993 -18.88203,2.0183 -24.5,4.1483 -5.45067,2.0666 -9.324,2.7523 -17.5,3.0982 z"
       id="path546" />
    <path
       style="fill:#ffffff;fill-opacity:1"
       d="m 265.03459,453.91886 c -16.5963,-7.2502 -17.84531,-31.1748 -1.86116,-35.65 25.25003,-7.0696 40.21229,23.3811 17.24567,35.0977 -4.35876,2.2237 -11.01177,2.4625 -15.38451,0.5523 z m 13.18617,-12.5614 c 8.9582,-5.4622 4.60857,-15.0734 -6.80421,-15.035 -8.80514,0.03 -12.94156,5.0053 -9.48962,11.4152 3.06431,5.6901 10.27232,7.2914 16.29383,3.6198 z m 483.39643,-329.0295 c -17.69964,10.5151 -25.56572,10.4351 -52.67406,-0.536 -24.70937,-10.0002 -44.21036,-9.345 -59.40855,1.996 -3.5,2.6117 -3.5,2.6117 -4.12676,-2.1843 -2.87115,-21.969902 -14.48278,-33.322402 -43.63183,-42.658202 -19.68333,-6.3041 -25.22675,-10.8944 -32.84545,-27.198 -5.2679,-11.273 -3.73958,-12.4714 -8.6057,-3.6018 0.22362,-1.7527 0.48242,-2.9082 0.85202,-5.1744 0.66761,-3.6977 1.41344,-6.7845 2.35771,-9.1636 2.52313,-6.6363 8.45236,-3.567 13.66437,7.0734 6.75277,13.7859 9.54582,15.908 29.58476,22.4774 11.97382,3.9255 17.72785,6.4073 23.32311,10.06 4.02647,2.462788 8.57048,4.825615 11.74028,7.895075 2.51258,2.497994 3.38854,4.830254 5.217,8.613225 1.82224,3.0261 4.09237,7.6689 5.04474,10.3174 1.73158,4.8153 1.73158,4.8153 8.15481,1.8095 14.10638,-6.6011 35.47753,-4.3804 58.55864,6.0851 3.73292,1.6926 7.03505,2.847902 9.8085,4.109702 6.7483,2.6979 9.99576,2.7959 15.897,2.903 3.57127,0.041 3.69862,0.1534 5.62051,-0.4074 3.76375,-1.7277 1.97089,-0.6837 4.98074,-2.4517 5.57915,-3.211902 5.58652,-3.637914 9.04599,-5.135114 3.38686,-1.547961 4.9295,-1.86841 6.27036,-1.97691 1.00739,-0.082 3.21116,-0.345878 5.13155,0.668022 0.33747,2.0422 -0.84632,4.681002 -1.60112,6.639602 -1.0034,2.1903 -2.64132,4.1018 -3.98462,5.2093 -4.89161,3.1028 -1.58519,1.0753 -8.374,4.6307 z M 209.5245,387.14603 c -5.90944,0.28905 -5.86645,-0.42508 -8.9286,-2.74245 -4.08166,-3.0889 -2.02529,-7.61782 2.17307,-7.89516 6.21658,-0.41066 6.75794,4.44052 13.76669,1.13639 8.39985,-3.95994 8.28886,1.32644 4.3351,5.55875 -3.47346,3.71817 -6.91424,3.72568 -11.34626,3.94247 z M 96.57445,375.85576 c -1.5546,-1.8732 -1.0116,-4.5366 1.21013,-5.9358 3.40633,-2.1451 7.20584,2.9286 4.57077,6.1037 -1.42069,1.7118 -4.29002,1.6285 -5.7809,-0.1679 z m -63.77677,-28.1238 c -0.73096,-1.1952 -0.75965,-1.1152 -1.10349,-1.9989 -0.54953,-1.1644 -0.50724,-1.1231 -1.34795,-3.3412 -1.71097,-3.4582 -1.932,-6.5175 -2.11134,-29.2234 -0.22089,-27.9651 0.18886,-30.564 6.35091,-40.2805 1.64274,-2.5903 3.40384,-4.4703 4.1453,-5.7181 4.58624,-6.4485 12.03791,-15.1812 16.58634,-22.5546 4.4288,-7.3522 6.00174,-13.6838 7.65341,-30.8076 2.74607,-28.4699 10.10893,-38.7912 32.10643,-45.0069 5.34918,-2.0258 16.60352,-6.1071 21.74821,-9.5784 3.16151,-2.4927 2.62011,-2.8032 5.7913,-7.1643 2.89964,-3.9877 7.03838,-9.6016 9.19721,-12.4753 12.42717,-16.5424 48.42188,-26.9858 73.67375,-21.3754 13.69461,3.0427 19.64664,2.7781 32.10034,-1.427 26.29428,-8.8784 40.04282,-8.8289 57.60463,0.2075 4.03802,2.0777 6.55746,4.1293 6.96932,4.3815 0.68388,0.4187 1.28405,0.8493 2.03037,1.3774 1.0972,0.7764 1.73754,1.3066 2.34991,1.6405 3.61613,1.9716 7.07134,3.3758 28.49225,3.438 24.26424,0.071 30.94008,1.9033 49,13.4519 1.65,1.0551 4.125,2.5451 5.5,3.3111 3.3716,1.8783 9.35037,5.258 16,9.0446 3.025,1.7226 8.2,4.6179 11.5,6.4341 6.89584,3.7951 36.1882,18.2407 36.988,18.2407 0.29359,0 2.44139,0.856 4.7729,1.9021 14.43177,6.4754 39.13825,14.0172 52.94246,16.161 8.41407,1.3067 26.78991,1.6988 36.82028,-0.5777 15.33019,-4.2847 29.60534,-12.9962 39.90437,-24.4074 11.39005,-12.3376 10.80508,-33.4895 -1.14151,-45.3035 -5.65251,-5.5898 -4.52742,-6.2697 2.71181,-1.6388 41.10106,26.292 22.57073,81.9779 -33.88429,100.2737 -7.53943,2.4434 -16.04255,5.9383 -18.89581,7.7666 -8.26527,5.296 -21.84799,4.8975 -37.21821,-1.0918 -9.95928,-3.8809 -11.47306,-4.2098 -16,-3.4765 -19.94486,3.2307 -30.29116,-0.8473 -44.21151,-17.4264 -7.51723,-8.9529 -9.76722,-10.7337 -17.28403,-13.6795 -3.29273,-1.2904 -8.57826,-3.9112 -11.74562,-5.8239 -17.20033,-10.3868 -21.1838,-8.8667 -13.47983,5.1442 19.58635,35.621 12.12596,60.286 -20.02901,66.2184 -29.42928,5.4297 -57.34237,-29.1478 -44.91945,-55.644 6.50359,-13.8713 -5.03362,-18.3163 -24.70047,-9.5165 -9.02655,4.0389 -11.53919,3.7677 -22.13008,-2.3885 -21.3384,-12.4035 -38.7242,-7.0646 -50.49943,15.5074 -8.44664,16.1915 -16.13642,21.6526 -32.00057,22.726 -7.29362,0.4935 -8.5533,0.1846 -21.5,-5.2726 -17.61278,-7.4241 -37.9419,1.452 -48.2061,21.0477 -3.86474,7.3783 -9.18958,13.1325 -17.01392,18.3858 -6.10108,4.0963 -8.7091,7.734 -12.87772,17.9618 -4.18647,10.2717 -7.27532,13.8686 -12.64721,14.7276 -9.90058,1.5832 -15.5186,8.0407 -16.75896,19.2631 -2.35694,21.325 -6.83747,25.9878 -25.09687,26.1182 -5.7973,0.041 -11.88992,1.4089 -13.75716,3.088 -1.26844,1.8397 -1.00554,1.5135 -2.37896,-0.6202 z m 22.39958,-36.6743 c 9.65024,-6.6068 10.96039,-25.3513 2.1475,-30.7243 -8.30052,-5.0607 -15.74238,3.0815 -15.78822,17.274 -0.0412,12.7432 5.98885,18.689 13.64072,13.4503 z m 49.17107,-62.8591 c 6.94025,-5.1039 9.0834,-12.2828 5.64932,-18.9236 -6.22262,-12.0332 -25.48307,-4.263 -25.48307,10.2806 0,10.7141 10.68563,15.3706 19.83375,8.643 z m 273.77843,-0.3683 c 13.85426,-4.1143 20.32981,-19.2193 13.8306,-32.2616 -12.57077,-25.2262 -48.02245,-19.8639 -47.85889,7.239 0.10965,18.1707 16.50452,30.2266 34.02829,25.0226 z m -290.4393,-44.7076 c 7.78727,-8.3363 8.19744,-14.815 0.93796,-14.815 -4.26784,0 -8.43862,3.1018 -10.12103,7.5268 -3.44278,9.0552 2.85979,14.0573 9.18307,7.2882 z m 105.48803,-10.6377 c 11.57585,-3.6135 17.17056,-9.5201 21.32454,-22.5132 6.65828,-20.8262 -30.01828,-35.7882 -51.63672,-21.0648 -27.76862,18.912 -3.31065,54.0737 30.31218,43.578 z m 158.37182,-28.6942 c 3.9995,-2.0682 6.50561,-7.0061 5.11017,-10.0688 -3.41586,-7.497 -19.84518,-9.2976 -25.26357,-2.7689 -6.45165,7.7738 9.85685,18.1623 20.1534,12.8377 z m -57.63869,-4.7331 c 1.59527,-2.5478 -0.41131,-5.1818 -4.2377,-5.5628 -3.86841,-0.3851 -6.44379,3.5566 -4.13854,6.3343 1.69091,2.0374 6.919,1.5559 8.37624,-0.7715 z M 164.29056,319.91202 c -38.3191,-10.0653 -33.10752,-62.1242 6.21922,-62.1242 27.59836,0 41.83738,33.5387 22.46407,52.912 -7.80135,7.8013 -19.61274,11.5948 -28.68329,9.2122 z m 14.04137,-13.0038 c 11.07206,-5.0294 15.71452,-19.8518 8.98218,-28.6784 -7.99067,-10.4763 -22.1809,-10.9617 -31.29818,-1.0706 -14.01478,15.2042 3.35626,38.3612 22.316,29.749 z m 85.41392,-4.8877 c -10.03513,-6.0149 -13.16959,-16.6308 -7.72283,-26.1559 7.81401,-13.665 32.40954,-9.8836 35.8693,5.5146 3.74338,16.6606 -13.58561,29.3689 -28.14647,20.6413 z m 16.31843,-9.60688 c 4.85771,-6.24675 4.38276,-14.38572 -5.18279,-14.94622 -10.08028,-0.5906 -14.7358,8.4256 -7.59012,14.6995 4.49041,3.9427 9.54821,4.39351 12.77291,0.24672 z M 454.1286,278.04126 c -7.9464,-4.544 -10.5042,-12.069 -6.66217,-19.6 7.19547,-14.1043 29.05086,-9.0546 29.06441,6.7153 0.0108,12.5118 -11.48838,19.1255 -22.40224,12.8847 z m 12.76396,-6.9836 c 4.01186,-6.4288 1.6034,-12.75 -4.85798,-12.75 -6.48019,0 -10.36011,9.8833 -5.27749,13.4433 3.36685,2.3583 8.4481,2.0107 10.13547,-0.6933 z"
       id="path448" />
  </g>
</svg>
